<mxfile host="app.diagrams.net" modified="2024-06-19T09:37:47.894Z" agent="Mozilla/5.0 (Windows NT 10.0; Win64; x64) AppleWebKit/537.36 (KHTML, like Gecko) Chrome/125.0.0.0 Safari/537.36" etag="ChJDh6ZrRIG7eW-nUunK" version="24.5.5" type="device">
  <diagram name="PÃ¡gina-1" id="KKU4vmKRQS79xznbbIGD">
    <mxGraphModel dx="954" dy="566" grid="1" gridSize="10" guides="1" tooltips="1" connect="1" arrows="1" fold="1" page="1" pageScale="1" pageWidth="1169" pageHeight="827" math="0" shadow="0">
      <root>
        <mxCell id="0" />
        <mxCell id="1" parent="0" />
        <mxCell id="b4sl9bxFcRuKotRHlQ8d-1" value="" style="ellipse;html=1;shape=startState;fillColor=#000000;strokeColor=#ff0000;" vertex="1" parent="1">
          <mxGeometry x="408.75" y="30" width="30" height="30" as="geometry" />
        </mxCell>
        <mxCell id="b4sl9bxFcRuKotRHlQ8d-2" value="" style="edgeStyle=orthogonalEdgeStyle;html=1;verticalAlign=bottom;endArrow=open;endSize=8;strokeColor=#ff0000;rounded=0;entryX=0.5;entryY=0;entryDx=0;entryDy=0;" edge="1" source="b4sl9bxFcRuKotRHlQ8d-1" parent="1" target="b4sl9bxFcRuKotRHlQ8d-3">
          <mxGeometry relative="1" as="geometry">
            <mxPoint x="423.75" y="120" as="targetPoint" />
          </mxGeometry>
        </mxCell>
        <mxCell id="b4sl9bxFcRuKotRHlQ8d-6" value="TRUE" style="edgeStyle=orthogonalEdgeStyle;rounded=0;orthogonalLoop=1;jettySize=auto;html=1;exitX=1;exitY=0.5;exitDx=0;exitDy=0;entryX=0;entryY=0.5;entryDx=0;entryDy=0;" edge="1" parent="1" source="b4sl9bxFcRuKotRHlQ8d-3" target="b4sl9bxFcRuKotRHlQ8d-4">
          <mxGeometry relative="1" as="geometry" />
        </mxCell>
        <mxCell id="b4sl9bxFcRuKotRHlQ8d-10" value="FALSE" style="edgeStyle=orthogonalEdgeStyle;rounded=0;orthogonalLoop=1;jettySize=auto;html=1;exitX=0.5;exitY=1;exitDx=0;exitDy=0;" edge="1" parent="1" source="b4sl9bxFcRuKotRHlQ8d-3" target="b4sl9bxFcRuKotRHlQ8d-9">
          <mxGeometry relative="1" as="geometry" />
        </mxCell>
        <mxCell id="b4sl9bxFcRuKotRHlQ8d-3" value="16A" style="rounded=1;whiteSpace=wrap;html=1;" vertex="1" parent="1">
          <mxGeometry x="401.25" y="120" width="45" height="30" as="geometry" />
        </mxCell>
        <mxCell id="b4sl9bxFcRuKotRHlQ8d-7" value="TRUE" style="edgeStyle=orthogonalEdgeStyle;rounded=0;orthogonalLoop=1;jettySize=auto;html=1;exitX=1;exitY=0.5;exitDx=0;exitDy=0;entryX=0;entryY=0.5;entryDx=0;entryDy=0;" edge="1" parent="1" source="b4sl9bxFcRuKotRHlQ8d-4" target="b4sl9bxFcRuKotRHlQ8d-5">
          <mxGeometry relative="1" as="geometry" />
        </mxCell>
        <mxCell id="b4sl9bxFcRuKotRHlQ8d-11" value="FALSE" style="rounded=0;orthogonalLoop=1;jettySize=auto;html=1;exitX=0.5;exitY=1;exitDx=0;exitDy=0;entryX=0.5;entryY=0;entryDx=0;entryDy=0;" edge="1" parent="1" source="b4sl9bxFcRuKotRHlQ8d-4" target="b4sl9bxFcRuKotRHlQ8d-9">
          <mxGeometry relative="1" as="geometry" />
        </mxCell>
        <mxCell id="b4sl9bxFcRuKotRHlQ8d-4" value="16B&lt;span style=&quot;color: rgba(0, 0, 0, 0); font-family: monospace; font-size: 0px; text-align: start; text-wrap: nowrap;&quot;&gt;%3CmxGraphModel%3E%3Croot%3E%3CmxCell%20id%3D%220%22%2F%3E%3CmxCell%20id%3D%221%22%20parent%3D%220%22%2F%3E%3CmxCell%20id%3D%222%22%20value%3D%2216A%22%20style%3D%22rounded%3D1%3BwhiteSpace%3Dwrap%3Bhtml%3D1%3B%22%20vertex%3D%221%22%20parent%3D%221%22%3E%3CmxGeometry%20x%3D%22272.5%22%20y%3D%22110%22%20width%3D%2245%22%20height%3D%2230%22%20as%3D%22geometry%22%2F%3E%3C%2FmxCell%3E%3C%2Froot%3E%3C%2FmxGraphModel%3E&lt;/span&gt;" style="rounded=1;whiteSpace=wrap;html=1;" vertex="1" parent="1">
          <mxGeometry x="528.75" y="120" width="45" height="30" as="geometry" />
        </mxCell>
        <mxCell id="b4sl9bxFcRuKotRHlQ8d-30" style="rounded=0;orthogonalLoop=1;jettySize=auto;html=1;exitX=0.5;exitY=1;exitDx=0;exitDy=0;entryX=0.5;entryY=0;entryDx=0;entryDy=0;edgeStyle=orthogonalEdgeStyle;" edge="1" parent="1" source="b4sl9bxFcRuKotRHlQ8d-5" target="b4sl9bxFcRuKotRHlQ8d-27">
          <mxGeometry relative="1" as="geometry">
            <Array as="points">
              <mxPoint x="681" y="430" />
              <mxPoint x="544" y="430" />
            </Array>
          </mxGeometry>
        </mxCell>
        <mxCell id="b4sl9bxFcRuKotRHlQ8d-5" value="17" style="rounded=1;whiteSpace=wrap;html=1;" vertex="1" parent="1">
          <mxGeometry x="658.75" y="120" width="45" height="30" as="geometry" />
        </mxCell>
        <mxCell id="b4sl9bxFcRuKotRHlQ8d-18" value="Blinky" style="rounded=0;orthogonalLoop=1;jettySize=auto;html=1;exitX=0.5;exitY=1;exitDx=0;exitDy=0;entryX=0.5;entryY=0;entryDx=0;entryDy=0;" edge="1" parent="1" source="b4sl9bxFcRuKotRHlQ8d-9" target="b4sl9bxFcRuKotRHlQ8d-12">
          <mxGeometry relative="1" as="geometry" />
        </mxCell>
        <mxCell id="b4sl9bxFcRuKotRHlQ8d-19" value="Pinky" style="rounded=0;orthogonalLoop=1;jettySize=auto;html=1;exitX=0.5;exitY=1;exitDx=0;exitDy=0;entryX=0.5;entryY=0;entryDx=0;entryDy=0;" edge="1" parent="1" source="b4sl9bxFcRuKotRHlQ8d-9" target="b4sl9bxFcRuKotRHlQ8d-13">
          <mxGeometry relative="1" as="geometry" />
        </mxCell>
        <mxCell id="b4sl9bxFcRuKotRHlQ8d-20" value="Inky" style="rounded=0;orthogonalLoop=1;jettySize=auto;html=1;exitX=0.5;exitY=1;exitDx=0;exitDy=0;entryX=0.5;entryY=0;entryDx=0;entryDy=0;" edge="1" parent="1" source="b4sl9bxFcRuKotRHlQ8d-9" target="b4sl9bxFcRuKotRHlQ8d-14">
          <mxGeometry relative="1" as="geometry" />
        </mxCell>
        <mxCell id="b4sl9bxFcRuKotRHlQ8d-21" value="Clyde" style="rounded=0;orthogonalLoop=1;jettySize=auto;html=1;exitX=0.5;exitY=1;exitDx=0;exitDy=0;entryX=0.5;entryY=0;entryDx=0;entryDy=0;" edge="1" parent="1" source="b4sl9bxFcRuKotRHlQ8d-9" target="b4sl9bxFcRuKotRHlQ8d-15">
          <mxGeometry relative="1" as="geometry" />
        </mxCell>
        <mxCell id="b4sl9bxFcRuKotRHlQ8d-22" value="default" style="rounded=0;orthogonalLoop=1;jettySize=auto;html=1;exitX=0.75;exitY=1;exitDx=0;exitDy=0;entryX=0.5;entryY=0;entryDx=0;entryDy=0;" edge="1" parent="1" source="b4sl9bxFcRuKotRHlQ8d-9" target="b4sl9bxFcRuKotRHlQ8d-16">
          <mxGeometry relative="1" as="geometry" />
        </mxCell>
        <mxCell id="b4sl9bxFcRuKotRHlQ8d-9" value="18" style="rounded=1;whiteSpace=wrap;html=1;" vertex="1" parent="1">
          <mxGeometry x="401.25" y="210" width="45" height="30" as="geometry" />
        </mxCell>
        <mxCell id="b4sl9bxFcRuKotRHlQ8d-23" style="rounded=0;orthogonalLoop=1;jettySize=auto;html=1;exitX=0.5;exitY=1;exitDx=0;exitDy=0;entryX=0.25;entryY=0;entryDx=0;entryDy=0;" edge="1" parent="1" source="b4sl9bxFcRuKotRHlQ8d-12" target="b4sl9bxFcRuKotRHlQ8d-17">
          <mxGeometry relative="1" as="geometry" />
        </mxCell>
        <mxCell id="b4sl9bxFcRuKotRHlQ8d-12" value="19-21" style="rounded=1;whiteSpace=wrap;html=1;" vertex="1" parent="1">
          <mxGeometry x="272.5" y="290" width="45" height="30" as="geometry" />
        </mxCell>
        <mxCell id="b4sl9bxFcRuKotRHlQ8d-24" style="rounded=0;orthogonalLoop=1;jettySize=auto;html=1;exitX=0.5;exitY=1;exitDx=0;exitDy=0;entryX=0.5;entryY=0;entryDx=0;entryDy=0;" edge="1" parent="1" source="b4sl9bxFcRuKotRHlQ8d-13" target="b4sl9bxFcRuKotRHlQ8d-17">
          <mxGeometry relative="1" as="geometry" />
        </mxCell>
        <mxCell id="b4sl9bxFcRuKotRHlQ8d-13" value="22-24" style="rounded=1;whiteSpace=wrap;html=1;" vertex="1" parent="1">
          <mxGeometry x="360" y="290" width="45" height="30" as="geometry" />
        </mxCell>
        <mxCell id="b4sl9bxFcRuKotRHlQ8d-25" style="rounded=0;orthogonalLoop=1;jettySize=auto;html=1;exitX=0.5;exitY=1;exitDx=0;exitDy=0;entryX=0.5;entryY=0;entryDx=0;entryDy=0;" edge="1" parent="1" source="b4sl9bxFcRuKotRHlQ8d-14" target="b4sl9bxFcRuKotRHlQ8d-17">
          <mxGeometry relative="1" as="geometry" />
        </mxCell>
        <mxCell id="b4sl9bxFcRuKotRHlQ8d-14" value="25-27" style="rounded=1;whiteSpace=wrap;html=1;" vertex="1" parent="1">
          <mxGeometry x="445" y="290" width="45" height="30" as="geometry" />
        </mxCell>
        <mxCell id="b4sl9bxFcRuKotRHlQ8d-26" style="rounded=0;orthogonalLoop=1;jettySize=auto;html=1;exitX=0.5;exitY=1;exitDx=0;exitDy=0;entryX=0.75;entryY=0;entryDx=0;entryDy=0;" edge="1" parent="1" source="b4sl9bxFcRuKotRHlQ8d-15" target="b4sl9bxFcRuKotRHlQ8d-17">
          <mxGeometry relative="1" as="geometry" />
        </mxCell>
        <mxCell id="b4sl9bxFcRuKotRHlQ8d-15" value="28-30" style="rounded=1;whiteSpace=wrap;html=1;" vertex="1" parent="1">
          <mxGeometry x="530" y="290" width="45" height="30" as="geometry" />
        </mxCell>
        <mxCell id="b4sl9bxFcRuKotRHlQ8d-29" style="edgeStyle=orthogonalEdgeStyle;rounded=0;orthogonalLoop=1;jettySize=auto;html=1;exitX=0.5;exitY=1;exitDx=0;exitDy=0;" edge="1" parent="1" source="b4sl9bxFcRuKotRHlQ8d-16" target="b4sl9bxFcRuKotRHlQ8d-27">
          <mxGeometry relative="1" as="geometry" />
        </mxCell>
        <mxCell id="b4sl9bxFcRuKotRHlQ8d-16" value="31-32" style="rounded=1;whiteSpace=wrap;html=1;" vertex="1" parent="1">
          <mxGeometry x="610" y="290" width="45" height="30" as="geometry" />
        </mxCell>
        <mxCell id="b4sl9bxFcRuKotRHlQ8d-28" style="edgeStyle=orthogonalEdgeStyle;rounded=0;orthogonalLoop=1;jettySize=auto;html=1;exitX=0.5;exitY=1;exitDx=0;exitDy=0;entryX=0.5;entryY=0;entryDx=0;entryDy=0;" edge="1" parent="1" source="b4sl9bxFcRuKotRHlQ8d-17" target="b4sl9bxFcRuKotRHlQ8d-27">
          <mxGeometry relative="1" as="geometry" />
        </mxCell>
        <mxCell id="b4sl9bxFcRuKotRHlQ8d-17" value="34" style="rounded=1;whiteSpace=wrap;html=1;" vertex="1" parent="1">
          <mxGeometry x="401.25" y="370" width="45" height="30" as="geometry" />
        </mxCell>
        <mxCell id="b4sl9bxFcRuKotRHlQ8d-27" value="" style="ellipse;html=1;shape=endState;fillColor=#000000;strokeColor=#ff0000;" vertex="1" parent="1">
          <mxGeometry x="528.75" y="460" width="30" height="30" as="geometry" />
        </mxCell>
        <mxCell id="b4sl9bxFcRuKotRHlQ8d-31" value="&lt;h1 style=&quot;margin-top: 0px;&quot;&gt;&lt;font style=&quot;font-size: 17px;&quot;&gt;Diagrama de Control&lt;/font&gt;&lt;/h1&gt;&lt;p&gt;Complexitat ciclomÃ tica = 6+1=7&lt;/p&gt;&lt;p&gt;Fitxa&#39;t que no hi ha cap bucle, tots els camins sÃ³n de 0 voltes.&lt;/p&gt;&lt;p&gt;&lt;b&gt;&lt;font style=&quot;font-size: 14px;&quot;&gt;Conjunt bÃ sic:&lt;/font&gt;&lt;/b&gt; mÃ­nim nombre de camins per aconseguir cobertura mÃ xima, el nombre de camins serÃ  inferior a complexitat ciclomÃ tica.&lt;/p&gt;&lt;p&gt;Per exemple:&lt;/p&gt;&lt;p&gt;16A -&amp;gt; 16B -&amp;gt; 17&lt;/p&gt;&lt;p&gt;16A -&amp;gt; 18 -&amp;gt; 19-21 -&amp;gt; 34&lt;/p&gt;&lt;p&gt;16A -&amp;gt; 16B -&amp;gt; 18 -&amp;gt; 22-24 -&amp;gt; 34&lt;/p&gt;&lt;p&gt;16A -&amp;gt; 18 -&amp;gt; 25-27 -&amp;gt; 34&lt;/p&gt;&lt;p&gt;16A -&amp;gt; 18 -&amp;gt; 28-30 -&amp;gt; 34&lt;/p&gt;&lt;p&gt;16A -&amp;gt; 18 -&amp;gt; 31-32&lt;/p&gt;&lt;p&gt;&lt;br&gt;&lt;/p&gt;" style="text;html=1;whiteSpace=wrap;overflow=hidden;rounded=0;" vertex="1" parent="1">
          <mxGeometry x="760" y="30" width="360" height="400" as="geometry" />
        </mxCell>
      </root>
    </mxGraphModel>
  </diagram>
</mxfile>
